<?xml version="1.0" encoding="UTF-8" standalone="no"?>
<!DOCTYPE svg PUBLIC "-//W3C//DTD SVG 1.1//EN" "http://www.w3.org/Graphics/SVG/1.1/DTD/svg11.dtd">
<svg width="100%" height="100%" viewBox="0 0 2292 2500" version="1.1" xmlns="http://www.w3.org/2000/svg" xmlns:xlink="http://www.w3.org/1999/xlink" xml:space="preserve" xmlns:serif="http://www.serif.com/" style="fill-rule:evenodd;clip-rule:evenodd;stroke-linejoin:round;stroke-miterlimit:1.41421;">
    <g id="g22" transform="matrix(1,0,0,1,-1226.19,-1073.19)">
        <path id="path16" d="M2649.98,3099.56L2649.98,2752.59C2649.98,2665.62 2689.76,2625.83 2773.96,2625.83L2861.86,2625.83C2921.07,2625.83 2959.01,2659.14 2967.34,2720.21C2970.11,2740.56 2971.04,2761.84 2971.04,2783.12L2971.04,3434.49C2971.04,3462.25 2969.19,3490.01 2957.16,3514.99C2939.58,3552.92 2912.75,3575.13 2868.34,3573.28C2835.03,3571.43 2801.72,3573.28 2767.48,3573.28C2689.76,3573.28 2649.98,3532.57 2649.98,3451.15L2649.98,3099.56Z" style="fill:white;fill-rule:nonzero;"/>
        <path id="path18" d="M1773.78,3099.56L1773.78,2752.59C1773.78,2665.62 1813.56,2625.83 1897.76,2625.83L1985.66,2625.83C2044.87,2625.83 2082.81,2659.14 2091.13,2720.21C2093.91,2740.56 2094.83,2761.84 2094.83,2783.12L2094.83,3434.49C2094.83,3462.25 2092.98,3490.01 2080.96,3514.99C2063.38,3552.92 2036.54,3575.13 1992.13,3573.28C1958.82,3571.43 1925.52,3573.28 1891.28,3573.28C1813.56,3573.28 1773.78,3532.57 1773.78,3451.15L1773.78,3099.56Z" style="fill:white;fill-rule:nonzero;"/>
        <path id="path20" d="M3515.08,2196.52C3508.6,1906 3400.35,1654.33 3206.05,1442.45C3035.8,1257.4 2827.63,1141.75 2583.36,1093.63C2510.27,1078.83 2436.25,1072.35 2363.15,1073.28C2296.54,1074.2 2228.99,1080.68 2161.45,1093.63C1917.19,1141.75 1709.01,1257.4 1538.77,1442.45C1344.46,1654.33 1235.29,1906 1229.73,2196.52C1223.26,2507.4 1227.88,2819.21 1227.88,3130.09C1227.88,3159.7 1234.36,3186.53 1251.02,3211.51C1287.1,3264.25 1340.76,3283.68 1399.98,3283.68C1507.31,3283.68 1581.33,3221.69 1579.48,3106.96C1575.77,2821.06 1578.55,2535.16 1577.63,2249.26C1577.63,2193.74 1582.25,2139.16 1593.35,2084.57C1673.85,1696.89 1995.83,1437.82 2362.23,1433.2C2736.03,1428.57 3068.19,1689.49 3149.61,2083.64C3160.71,2137.31 3165.34,2192.82 3165.34,2248.34C3165.34,2534.23 3168.11,2820.13 3163.49,3106.03C3161.64,3220.76 3236.58,3283.68 3342.98,3282.75C3402.2,3282.75 3455.86,3263.32 3491.95,3210.59C3508.6,3186.53 3515.08,3158.77 3515.08,3129.16C3516,2819.21 3521.56,2507.4 3515.08,2196.52Z" style="fill:white;fill-rule:nonzero;"/>
    </g>
</svg>
